<svg width="708" height="794" viewBox="0 0 708 794" fill="none" xmlns="http://www.w3.org/2000/svg">
<path d="M601.546 10.255C583.884 0.0579262 563.276 -2.63783 543.611 2.63146C523.946 7.90076 507.447 20.5392 497.25 38.2011C476.229 74.6966 488.774 121.518 525.227 142.614C542.889 152.811 563.497 155.507 583.162 150.237C602.885 144.952 619.326 132.33 629.581 114.652C650.602 78.1566 638.057 31.3347 601.546 10.255ZM526.43 55.0977C532.128 45.2278 541.343 38.1795 552.287 35.2469C563.232 32.3143 574.795 33.7953 584.665 39.4936C605.072 51.276 612.082 77.4377 600.284 97.7869C597.491 102.646 593.763 106.904 589.315 110.314C584.866 113.724 579.786 116.219 574.368 117.653C563.365 120.602 551.861 119.105 542.049 113.391C521.716 101.651 514.706 75.4897 526.43 55.0977Z" fill="#ED6300"/>
<path d="M551.637 169.535L488.766 133.186L514.629 88.3052C517.394 83.5268 521.942 80.0407 527.275 78.6118C532.607 77.1829 538.289 77.928 543.073 80.6836L569.937 96.1934C574.709 98.9496 578.191 103.488 579.617 108.811C581.044 114.135 580.297 119.806 577.543 124.579L551.637 169.535Z" fill="#ED6300" fill-opacity="0.635294"/>
<path d="M560.961 153.298C560.961 153.298 564.558 135.585 538.065 120.29C511.572 104.994 497.918 117.247 497.918 117.247L488.765 133.186L551.636 169.534L560.961 153.298Z" fill="white"/>
<path d="M445.074 781.784C633.618 731.263 745.481 537.358 694.926 348.684C644.371 160.01 450.543 48.0153 261.999 98.5359C73.4548 149.056 -38.4079 342.962 12.1468 531.635C62.7015 720.309 256.53 832.305 445.074 781.784Z" fill="#ED6300"/>
<path d="M427.745 717.111C580.604 676.153 671.297 518.954 630.312 365.998C589.328 213.042 432.187 122.25 279.328 163.209C126.47 204.167 35.7772 361.366 76.7614 514.322C117.746 667.278 274.887 758.07 427.745 717.111Z" fill="white"/>
<path d="M473.861 231.589C469.082 228.824 465.596 224.276 464.167 218.943C462.739 213.61 463.484 207.929 466.239 203.145L481.492 176.726L517.558 197.549L502.364 223.952C500.999 226.33 499.178 228.416 497.005 230.088C494.831 231.761 492.349 232.987 489.7 233.697C487.051 234.407 484.288 234.586 481.57 234.224C478.852 233.862 476.232 232.967 473.861 231.589Z" fill="#ED6300"/>
<path d="M233.222 648.734C238 651.499 241.487 656.047 242.915 661.38C244.344 666.713 243.599 672.394 240.844 677.178L225.591 703.597L189.525 682.774L204.719 656.371C207.494 651.587 212.051 648.097 217.393 646.665C222.735 645.234 228.427 645.978 233.222 648.734Z" fill="#191919"/>
<path d="M586.067 377.856C583.088 366.736 589.686 355.307 600.806 352.328L630.187 344.455L640.976 384.722L611.595 392.595C606.256 394.025 600.566 393.276 595.779 390.512C590.991 387.748 587.498 383.196 586.067 377.856ZM121.068 502.453C124.048 513.573 117.45 525.001 106.329 527.981L76.9487 535.854L66.1593 495.587L95.54 487.714C106.66 484.735 118.088 491.333 121.068 502.453Z" fill="#191919"/>
<path d="M562.023 560.628C564.788 555.85 569.336 552.364 574.669 550.935C580.002 549.506 585.684 550.251 590.467 553.006L616.828 568.275L596.005 604.341L569.586 589.088C564.826 586.302 561.36 581.747 559.943 576.416C558.526 571.085 559.274 565.41 562.023 560.628ZM145.051 319.691C142.286 324.47 137.738 327.956 132.405 329.385C127.073 330.814 121.391 330.069 116.607 327.313L90.2469 312.045L111.07 275.979L137.488 291.231C142.249 294.018 145.715 298.573 147.132 303.904C148.548 309.235 147.8 314.909 145.051 319.691Z" fill="#191919"/>
<path d="M415.879 672.809C426.999 669.83 438.427 676.428 441.407 687.548L449.295 716.987L409.087 727.761L401.199 698.322C400.479 695.683 400.288 692.927 400.638 690.214C400.987 687.501 401.869 684.884 403.233 682.513C404.597 680.142 406.417 678.064 408.587 676.398C410.757 674.733 413.236 673.513 415.879 672.809ZM291.205 207.517C285.865 208.948 280.176 208.199 275.388 205.435C270.601 202.671 267.108 198.118 265.677 192.778L257.789 163.339L297.997 152.565L305.885 182.005C308.923 193.109 302.325 204.537 291.205 207.517Z" fill="#191919"/>
<path d="M518.591 523.576L488.225 494.219C499.507 465.369 501.268 433.667 493.251 403.746C485.233 373.824 467.857 347.25 443.662 327.906L455.244 287.365C455.985 284.767 455.837 281.996 454.824 279.492C453.81 276.988 451.989 274.894 449.65 273.543C447.31 272.193 444.586 271.662 441.911 272.037C439.236 272.411 436.762 273.669 434.883 275.61L405.526 305.976C376.676 294.694 344.975 292.933 315.053 300.951C285.131 308.968 258.557 326.344 239.214 350.54L198.673 338.958C196.075 338.216 193.304 338.364 190.8 339.378C188.296 340.391 186.202 342.212 184.851 344.552C183.5 346.891 182.97 349.615 183.344 352.291C183.719 354.966 184.976 357.44 186.917 359.319L217.284 388.675C206.002 417.525 204.24 449.227 212.258 479.149C220.275 509.07 237.651 535.644 261.847 554.988L250.227 595.595C249.485 598.193 249.633 600.964 250.647 603.468C251.66 605.972 253.481 608.066 255.821 609.416C258.16 610.767 260.884 611.297 263.56 610.923C266.235 610.549 268.709 609.291 270.588 607.35L299.945 576.983C328.794 588.266 360.496 590.027 390.418 582.009C420.339 573.992 446.913 556.616 466.257 532.42L506.864 544.04C509.461 544.781 512.232 544.633 514.737 543.62C517.241 542.606 519.334 540.785 520.685 538.446C522.036 536.106 522.566 533.382 522.192 530.707C521.817 528.032 520.56 525.558 518.619 523.679L518.591 523.576ZM375.973 481.292L367.578 449.962L398.908 441.567L466.876 507.291L375.973 481.292ZM306.573 441.224L238.605 375.499L329.534 401.514L337.903 432.829L306.573 441.224ZM469.007 475.637L416.062 424.428L436.309 353.608C452.471 368.963 464.077 388.483 469.847 410.017C475.617 431.55 475.326 454.258 469.007 475.637ZM392.637 418.163L361.307 426.558L352.912 395.228L418.637 327.26L392.637 418.163ZM386.982 325.129L335.774 378.074L264.953 357.826C280.308 341.665 299.829 330.059 321.362 324.289C342.895 318.519 365.604 318.81 386.982 325.129ZM236.435 407.131L289.419 458.362L269.171 529.183C253.01 513.828 241.404 494.307 235.634 472.774C229.864 451.241 230.155 428.532 236.474 407.154L236.435 407.131ZM312.805 464.605L344.174 456.233L352.569 487.563L286.844 555.531L312.805 464.605ZM318.46 557.639L369.668 504.694L440.488 524.942C425.139 541.1 405.626 552.706 384.101 558.48C362.576 564.253 339.874 563.97 318.499 557.662L318.46 557.639Z" fill="#ED6300"/>
</svg>
